<?xml version="1.0" encoding="utf-8"?>
<!-- Generator: Adobe Illustrator 26.2.1, SVG Export Plug-In . SVG Version: 6.00 Build 0)  -->
<svg version="1.1" id="Layer_1" xmlns="http://www.w3.org/2000/svg" xmlns:xlink="http://www.w3.org/1999/xlink" x="0px" y="0px"
	 viewBox="0 0 354.7 100" style="enable-background:new 0 0 354.7 100;" xml:space="preserve">
<style type="text/css">
	.st0{fill:#E42527;}
	.st1{fill:#089949;}
	.st2{fill:#226DB4;}
	.st3{fill:#F9B21D;}
</style>
<g>
	<path d="M125.6,65.7l4.8-6.6c3.2,3.5,8.5,6.7,15.2,6.7c6.9,0,9.6-3.4,9.6-6.6c0-10.1-27.9-3.8-27.9-21.5c0-8,6.9-14.1,17.5-14.1
		c7.4,0,13.5,2.4,17.9,6.8l-4.8,6.3c-3.8-3.8-8.9-5.5-14-5.5c-4.9,0-8.1,2.4-8.1,6c0,9,27.9,3.5,27.9,21.3c0,8-5.7,14.9-18.6,14.9
		C136.3,73.3,129.9,70.1,125.6,65.7L125.6,65.7z M194.7,72.4v-4.6c-2.4,2.7-6.8,5.5-12.2,5.5c-7.5,0-11.2-4-11.2-11V37.7h7.6v21.8
		c0,5.4,2.7,7.1,7.1,7.1c3.8,0,7.1-2.2,8.9-4.5V37.7h7.6v34.8L194.7,72.4L194.7,72.4z M212.1,72.4V37.7h7.6v5
		c2.7-3.3,6.8-5.9,11.3-5.9v7.5c-0.6-0.1-1.4-0.2-2.3-0.2c-3.2,0-7.5,2.2-9,4.7v23.7L212.1,72.4z M246.2,72.4L232,37.7h8.1
		l10.2,26.1l10.2-26.1h8.1l-14.2,34.8L246.2,72.4L246.2,72.4z M271.2,55c0-10.1,7.3-18.2,17.6-18.2c10.4,0,17.1,7.9,17.1,18.9v1.9
		h-26.8c0.6,5.2,4.5,9.6,11,9.6c3.5,0,7.4-1.4,9.9-3.9l3.5,5c-3.5,3.3-8.6,5.1-14.1,5.1C278.9,73.3,271.2,66,271.2,55z M288.7,43
		c-6.4,0-9.4,5-9.7,9.1h19.6C298.4,48,295.6,43,288.7,43z M313,79.3c0.8,0.4,2,0.6,2.9,0.6c2.4,0,4-0.7,5-3l1.7-4l-14.3-35.2h8.1
		l10.2,26.1l10.2-26.1h8.1l-16.8,41c-2.4,5.9-6.5,7.8-11.9,7.8c-1.1,0-3.2-0.2-4.2-0.5L313,79.3L313,79.3z"/>
</g>
<g>
	<g>
		<path class="st0" d="M50,19.6c-5.4,0-9.8-4.4-9.8-9.8S44.6,0,50,0s9.8,4.4,9.8,9.8S55.4,19.6,50,19.6z M50,5.9
			c-2.2,0-3.9,1.8-3.9,3.9s1.8,3.9,3.9,3.9s3.9-1.8,3.9-3.9S52.2,5.9,50,5.9z"/>
	</g>
	<g>
		<path class="st1" d="M90.2,49c-5.4,0-9.8-4.4-9.8-9.8s4.4-9.8,9.8-9.8c5.4,0,9.8,4.4,9.8,9.8S95.6,49,90.2,49z M90.2,35.3
			c-2.2,0-3.9,1.8-3.9,3.9c0,2.2,1.8,3.9,3.9,3.9c2.2,0,3.9-1.8,3.9-3.9C94.1,37.1,92.4,35.3,90.2,35.3z"/>
	</g>
	<g>
		<path class="st2" d="M74.8,95.5c-5.4,0-9.8-4.4-9.8-9.8c0-5.4,4.4-9.8,9.8-9.8c5.4,0,9.8,4.4,9.8,9.8
			C84.6,91.1,80.2,95.5,74.8,95.5z M74.8,81.8c-2.2,0-3.9,1.8-3.9,3.9c0,2.2,1.8,3.9,3.9,3.9c2.2,0,3.9-1.8,3.9-3.9
			C78.7,83.5,77,81.8,74.8,81.8z"/>
	</g>
	<g>
		<path class="st3" d="M25.4,95.7c-5.4,0-9.8-4.4-9.8-9.8c0-5.4,4.4-9.8,9.8-9.8s9.8,4.4,9.8,9.8C35.2,91.3,30.8,95.7,25.4,95.7z
			 M25.4,82c-2.2,0-3.9,1.8-3.9,3.9c0,2.2,1.8,3.9,3.9,3.9s3.9-1.8,3.9-3.9C29.4,83.7,27.6,82,25.4,82z"/>
	</g>
	<g>
		<path class="st2" d="M9.8,49C4.4,49,0,44.6,0,39.2s4.4-9.8,9.8-9.8s9.8,4.4,9.8,9.8S15.2,49,9.8,49z M9.8,35.3
			c-2.2,0-3.9,1.8-3.9,3.9c0,2.2,1.8,3.9,3.9,3.9s3.9-1.8,3.9-3.9C13.7,37,12,35.3,9.8,35.3z"/>
	</g>
	<g>
		<path class="st2" d="M17.7,59.7c-0.8,0-1.7-0.4-2.2-1c-1-1.2-0.9-3.1,0.4-4.1l11.8-9.9l-7.1-28.7c-0.4-1.6,0.6-3.2,2.2-3.6
			c1.6-0.4,3.2,0.6,3.6,2.2l7.5,30.5c0.3,1.1-0.1,2.2-1,2.9L19.5,59C19,59.4,18.3,59.7,17.7,59.7z"/>
	</g>
	<g>
		<path class="st3" d="M44.6,87c-1.2,0-2.3-0.7-2.7-1.8L36.1,71L6.6,68.8c-1.6-0.1-2.8-1.5-2.7-3.1C4,64.1,5.4,62.8,7,63l31.3,2.3
			c1.1,0.1,2.1,0.8,2.5,1.8L47.3,83c0.6,1.5-0.1,3.2-1.6,3.8C45.4,86.9,45,87,44.6,87z"/>
	</g>
	<g>
		<path class="st2" d="M50,100.2c-0.4,0-0.7-0.1-1.1-0.2c-1.5-0.6-2.2-2.3-1.6-3.8l11.9-29.1c0.4-1,1.4-1.7,2.5-1.8L78.7,64
			c1.6-0.1,3,1.1,3.1,2.7c0.1,1.6-1.1,3-2.7,3.1L63.9,71L52.7,98.4C52.3,99.5,51.2,100.2,50,100.2z"/>
	</g>
	<g>
		<path class="st1" d="M93.2,68.8c-0.7,0-1.3-0.2-1.9-0.7l-24-20.3c-0.9-0.7-1.2-1.9-1-2.9l4.1-16.7c0.4-1.6,2-2.5,3.6-2.2
			c1.6,0.4,2.5,2,2.2,3.6l-3.7,14.9l22.6,19.1c1.2,1,1.4,2.9,0.4,4.1C94.9,68.5,94,68.8,93.2,68.8z"/>
	</g>
	<g>
		<path class="st0" d="M50,34.6c-0.5,0-1.1-0.1-1.5-0.4l-14.5-9c-1.4-0.9-1.8-2.7-0.9-4s2.7-1.8,4-0.9l13,8.1l25.1-15.6
			c1.4-0.9,3.2-0.4,4,0.9s0.4,3.2-0.9,4L51.5,34.2C51.1,34.5,50.5,34.6,50,34.6z"/>
	</g>
</g>
</svg>
